<?xml version="1.0" encoding="utf-8"?>
<!-- Generator: Adobe Illustrator 28.0.0, SVG Export Plug-In . SVG Version: 6.00 Build 0)  -->
<svg version="1.1" id="icon-0" xmlns:svgjs="http://svgjs.dev/svgjs"
	 xmlns="http://www.w3.org/2000/svg" xmlns:xlink="http://www.w3.org/1999/xlink" x="0px" y="0px" viewBox="0 0 1046.8 1046.8"
	 style="enable-background:new 0 0 1046.8 1046.8;" xml:space="preserve">
<style type="text/css">
	.st0{fill:#FFFFFF;}
	.st1{display:none;fill:none;}
</style>
<rect x="0" width="1046.8" height="1046.8"/>
<g transform="matrix(0.6666666666666666,0,0,0.6666666666666666,250.6065886666923,365.6448043184886)">
	<g id="tight-bounds" transform="matrix(1,0,0,1,-0.19471496200824845,-0.09999999999999432)">
		<g>
			<g transform="matrix(1,0,0,1,0,183.5806219660411)">
				<g id="textblocktransform">
					<g>
						<g transform="matrix(1,0,0,1,0,0)">
							<path id="text-0" class="st0" d="M-344.7,214v-7.7h125.6v7.7h-37v228.9h12.6c19.8,0,35.5-6,47.3-18.1
								c11.7-12.1,23.6-30.7,35.7-55.8l0,0h7.3l-6.6,81.6h-184.9v-7.7h20.6V214H-344.7z M-123.2,282.7h-7.3l-10.1-92.8
								c9.3-4.7,16.9-7,22.7-7l0,0c7.9,0,11.9,4.3,11.9,12.9l0,0c0,5.4-1,13-3.1,23l0,0L-123.2,282.7z M-85.9,214v-7.7H95.5
								l3.5,69.1h-6.2C83,251.9,72.7,235.8,62,227.1S35.6,214,14.9,214l0,0H2.7v107.8h11.9c10.9,0,20.1-4.1,27.6-12.4
								c7.4-8.2,12.6-19.3,15.7-33.3l0,0h5.2v103.3h-6c-4.1-17.4-9.8-29.9-16.9-37.3s-16.8-11.2-29.1-11.2l0,0H2.7v112H16
								c21.4,0,39.6-6.4,54.6-19.2s25.4-29.2,30.9-49.2l0,0h7l-2.9,76.1H-85.9v-7.7h20.6V214H-85.9z M135,454h-4.2v-62.5h4.2
								c6,20.2,14.2,34.4,24.4,42.6c10.2,8.1,23,12.2,38.4,12.2l0,0c23.7,0,35.6-7.6,35.6-22.7l0,0c0-6.5-2.9-11.4-8.7-14.7l0,0
								c-9.1-5.1-20.7-9.1-34.9-11.9l0,0c-15.8-4.2-29.1-9.8-39.8-16.7l0,0c-12.8-8.4-19.2-21.6-19.2-39.8s5.6-32.6,16.7-43.5
								c11.2-10.8,26.1-16.2,44.7-16.2l0,0c11.4,0,23.1,2.7,35.2,8l0,0c4.4,1.9,7.8,2.8,10.1,2.8s4.3-0.8,5.9-2.4
								c1.6-1.6,3.6-4.7,5.9-9.1l0,0h3.8v53.4h-4.2c-11.9-30.2-30.2-45.4-55.1-45.4l0,0c-10.9,0-19.1,1.9-24.4,5.7
								c-5.4,3.9-8,8.7-8,14.5l0,0c0,3.5,0.8,6.2,2.4,8.2c1.6,2,2.9,3.5,3.8,4.4c0.9,0.9,2.4,1.9,4.5,2.9c2.1,1.1,3.8,1.9,5.2,2.4
								c1.4,0.6,3.6,1.4,6.5,2.3c2.9,0.9,5,1.5,6.4,1.7l0,0c15.8,4,27.2,7.4,34.2,10.3c7,2.9,13.6,6.5,19.9,10.7l0,0
								c12.8,8.8,19.2,23.1,19.2,42.7c0,19.7-5.8,34.6-17.4,44.7c-11.6,10.1-27.6,15.2-47.8,15.2l0,0c-14.4,0-28.4-3.4-41.9-10.1
								l0,0c-2.8-1.9-5-2.8-6.6-2.8l0,0C144.9,441.1,139.9,445.4,135,454L135,454z M286.4,454h-4.2v-62.5h4.2
								c6,20.2,14.2,34.4,24.4,42.6c10.2,8.1,23,12.2,38.4,12.2l0,0c23.7,0,35.6-7.6,35.6-22.7l0,0c0-6.5-2.9-11.4-8.7-14.7l0,0
								c-9.1-5.1-20.7-9.1-34.9-11.9l0,0c-15.8-4.2-29.1-9.8-39.8-16.7l0,0c-12.8-8.4-19.2-21.6-19.2-39.8
								c0-18.1,5.6-32.6,16.7-43.5c11.2-10.8,26.1-16.2,44.7-16.2l0,0c11.4,0,23.1,2.7,35.2,8l0,0c4.4,1.9,7.8,2.8,10.1,2.8
								s4.3-0.8,5.9-2.4c1.6-1.6,3.6-4.7,5.9-9.1l0,0h3.8v53.4h-4.2c-11.9-30.2-30.2-45.4-55.1-45.4l0,0c-10.9,0-19.1,1.9-24.4,5.7
								c-5.4,3.9-8,8.7-8,14.5l0,0c0,3.5,0.8,6.2,2.4,8.2s2.9,3.5,3.8,4.4s2.4,1.9,4.5,2.9c2.1,1.1,3.8,1.9,5.2,2.4
								c1.4,0.6,3.6,1.4,6.5,2.3c2.9,0.9,5,1.5,6.4,1.7l0,0c15.8,4,27.2,7.4,34.2,10.3c7,2.9,13.6,6.5,19.9,10.7l0,0
								c12.8,8.8,19.2,23.1,19.2,42.7c0,19.7-5.8,34.6-17.4,44.7c-11.6,10.1-27.6,15.2-47.8,15.2l0,0c-14.4,0-28.4-3.4-41.9-10.1
								l0,0c-2.8-1.9-5-2.8-6.6-2.8l0,0C296.3,441.1,291.3,445.4,286.4,454L286.4,454z M517.4,454c-30,0-52.5-7.7-67.6-23.2
								c-15-15.4-22.5-37-22.5-64.6c0-27.5,8.4-48.6,25.3-63.3c16.9-14.7,38.4-22,64.4-22l0,0c52.8,0,78.2,26.5,76.1,79.6l0,0h-98.4
								v13.6c0,22.8,2.9,40,8.7,51.6c5.8,11.6,15.9,17.4,30.4,17.4l0,0c27,0,44.7-14.4,53-43.3l0,0l6.3,1
								c-4.4,16.7-12.4,29.8-23.9,39.1C557.7,449.4,540.4,454,517.4,454L517.4,454z M495.1,336.5v17.1H531v-17.1
								c0-18.8-1.1-31.7-3.3-38.6c-2.2-6.8-6.6-10.3-13.3-10.3c-6.6,0-11.5,3.7-14.7,11C496.6,305.9,495.1,318.5,495.1,336.5
								L495.1,336.5z M606.4,290.8v-6.3h84.1v32.1c3.7-10.7,9.4-19.3,17.1-25.8c7.7-6.5,19.3-9.8,34.9-9.8l0,0
								c36.1,0,54.1,19.4,54.1,58.3l0,0v105h19.5v6.3h-98.7v-6.3h14.3V330.9c0-14-0.9-23-2.8-27.1c-1.9-4-5.2-6.1-10.1-6.1l0,0
								c-7.4,0-14,4.9-19.7,14.7s-8.5,21.6-8.5,35.6l0,0v96.3h15v6.3h-99.1v-6.3h19.2V290.8H606.4z M918.2,287.3L918.2,287.3
								c-10.2,0-17.6,5.6-22,16.7c-4.4,11.2-6.6,29.7-6.6,55.5l0,0v18.1c0,23,2.6,39.5,7.7,49.5c5.1,10,14.5,15,28.3,15
								c13.7,0,24.7-4.7,32.8-14s13.4-19.9,15.7-31.8l0,0l6.3,0.7c-4.4,20-12.6,34.4-24.4,43.3l0,0c-12.1,9.1-28.7,13.6-49.9,13.6
								l0,0c-27,0-47.7-7.3-62.1-21.8c-14.4-14.5-21.6-35.8-21.6-63.9c0-28,8.2-49.6,24.6-64.7c16.4-15.1,39.2-22.7,68.5-22.7l0,0
								c20.7,0,36.5,4,47.5,12c10.9,8,16.4,18.1,16.4,30.2c0,12.1-2.6,20.9-7.8,26.5c-5.3,5.6-12.5,8.4-21.6,8.4
								c-9.2,0-16.6-2.4-22.2-7.3c-5.6-4.9-8.4-12.1-8.4-21.6l0,0c0-4.2,0.6-8.4,1.7-12.6l0,0h11.5c1.6-4.7,2.4-8.8,2.4-12.6l0,0
								C935,292.8,929.4,287.3,918.2,287.3z M1080.8,454c-30,0-52.5-7.7-67.5-23.2c-15-15.4-22.5-37-22.5-64.6
								c0-27.5,8.4-48.6,25.3-63.3c16.8-14.7,38.3-22,64.3-22l0,0c52.8,0,78.2,26.5,76.1,79.6l0,0h-98.4v13.6
								c0,22.8,2.9,40,8.7,51.6c5.8,11.6,15.9,17.4,30.4,17.4l0,0c27,0,44.7-14.4,53-43.3l0,0l6.3,1c-4.4,16.7-12.4,29.8-23.9,39.1
								C1121.2,449.4,1103.9,454,1080.8,454L1080.8,454z M1058.5,336.5v17.1h35.9v-17.1c0-18.8-1.1-31.7-3.3-38.6
								c-2.2-6.8-6.7-10.3-13.3-10.3c-6.7,0-11.5,3.7-14.7,11C1060.1,305.9,1058.5,318.5,1058.5,336.5L1058.5,336.5z"/>
						</g>
					</g>
					<g transform="matrix(1,0,0,1,75.54432,88.27315652901069)">
						<g transform="matrix(1,0,0,1,0,0)">
							<path id="text-1" class="st0" d="M-99,550.7h-34.5V441.1h32c11.2,0,20.2,2.1,27.1,6.3c6.9,4.2,10.4,11,10.4,20.5l0,0
								c0,5.4-1.4,10.3-4.2,14.7c-2.8,4.3-6.8,7.3-12,9l0,0v0.7c6.6,1.3,12,4.2,16.2,8.5s6.3,10.3,6.3,17.8l0,0
								c0,7.1-1.7,13.1-5.2,17.8c-3.5,4.7-8.3,8.3-14.5,10.6C-83.7,549.5-90.9,550.7-99,550.7L-99,550.7z M-120.6,451.7V488h16.5
								c9.6,0,16.5-1.7,20.8-5c4.3-3.3,6.4-7.7,6.4-13.4l0,0c0-6.6-2.2-11.3-6.7-14c-4.4-2.7-11-4.1-19.8-4.1l0,0h-17.2V451.7z
								 M-120.6,498v42.4h19.5c9.6,0,17.1-1.8,22.5-5.4c5.4-3.6,8.1-9.1,8.1-16.6l0,0c0-6.9-2.7-12-8-15.3c-5.3-3.3-12.8-5-22.6-5
								l0,0h-19.5V498z M-4.5,552.6L-4.5,552.6c-7.1,0-13.6-1.7-19.4-5c-5.8-3.4-10.5-8.2-13.9-14.5c-3.5-6.3-5.2-13.9-5.2-22.7l0,0
								c0-8.8,1.7-16.4,5.2-22.8c3.5-6.4,8-11.3,13.5-14.7c5.5-3.4,11.4-5.1,17.5-5.1l0,0c10.2,0,18,3.4,23.6,10.2
								c5.6,6.8,8.4,16,8.4,27.7l0,0c0,3-0.2,5.5-0.5,7.5l0,0h-55.1c0.4,8.8,3.1,15.9,8.1,21.3c4.9,5.4,11.4,8.1,19.3,8.1l0,0
								c4.1,0,7.8-0.6,11.1-1.7c3.4-1.1,6.5-2.6,9.4-4.5l0,0l4.5,8c-3.5,2.4-7.4,4.4-11.7,6C6.1,551.9,1.1,552.6-4.5,552.6z
								 M-30.5,504L-30.5,504h44.4c0-8.5-1.8-14.9-5.4-19.4c-3.6-4.4-8.6-6.6-15.2-6.6l0,0c-5.8,0-11.1,2.3-15.7,6.8
								C-27,489.3-29.7,495.7-30.5,504z M66.4,552.6L66.4,552.6c-6,0-11.6-1-16.8-3s-9.6-4.8-13.3-8.4l0,0l6-7.5
								c3.4,2.8,7.1,5.1,10.9,6.6c3.9,1.6,8.4,2.4,13.6,2.4l0,0c5.4,0,9.5-1.3,12.2-3.9c2.7-2.6,4.1-5.7,4.1-9.3l0,0
								c0-2.8-0.9-5.2-2.7-7.1c-1.8-1.9-4.1-3.5-6.9-4.8c-2.8-1.3-5.8-2.5-8.9-3.6l0,0c-4-1.5-7.8-3.2-11.5-5.1
								c-3.6-1.9-6.6-4.4-8.9-7.3c-2.3-2.9-3.5-6.6-3.5-11l0,0c0-6.3,2.4-11.7,7.2-16.1s11.6-6.6,20.3-6.6l0,0c5,0,9.6,0.9,13.9,2.6
								c4.2,1.7,7.9,3.9,11,6.4l0,0l-5.9,7.5c-2.8-2-5.8-3.6-8.8-4.8c-3-1.1-6.4-1.7-10.1-1.7l0,0c-5.3,0-9.2,1.2-11.7,3.7
								c-2.5,2.4-3.7,5.2-3.7,8.3l0,0c0,3.8,1.6,6.7,4.9,8.7c3.3,1.9,7.3,3.8,12.2,5.7l0,0c4.3,1.5,8.3,3.2,12.2,5.1
								c3.8,1.9,7,4.4,9.4,7.5c2.4,3,3.6,7.1,3.6,12.1l0,0c0,6.5-2.5,12.1-7.5,16.8C83,550.3,75.8,552.6,66.4,552.6z M139.8,552.6
								L139.8,552.6c-8.5,0-14.4-2.4-17.7-7.3c-3.3-4.9-5-11.3-5-19.3l0,0v-45.7h-12v-9.8l12.8-0.6l1.5-26.2h10.7v26.2h22.2v10.5
								h-22.2v46c0,5,0.9,8.9,2.8,11.7c1.8,2.8,5.1,4.2,9.9,4.2l0,0c1.4,0,2.9-0.2,4.5-0.5s3.2-0.8,4.8-1.5l0,0l2.8,9
								c-2.2,0.9-4.5,1.8-7.1,2.4S142.5,552.6,139.8,552.6z M237,550.7h-13V441.1h30.7c8.2,0,15.3,1,21.4,3s10.9,5.4,14.3,10
								c3.4,4.7,5.1,11,5.1,18.9l0,0c0,11.4-3.7,19.9-11.1,25.3c-7.4,5.5-17.1,8.2-29.1,8.2l0,0H237V550.7z M237,451.8v44.3h16.5
								c9.8,0,17.1-1.8,21.9-5.5s7.2-9.5,7.2-17.5l0,0c0-8.1-2.5-13.7-7.4-16.8c-5-3-12.4-4.6-22.3-4.6l0,0H237V451.8z M349.2,552.6
								L349.2,552.6c-7.1,0-13.6-1.7-19.4-5c-5.8-3.4-10.5-8.2-13.9-14.5c-3.5-6.3-5.2-13.9-5.2-22.7l0,0c0-8.8,1.7-16.4,5.2-22.8
								c3.5-6.4,7.9-11.3,13.5-14.7c5.5-3.4,11.4-5.1,17.5-5.1l0,0c10.2,0,18.1,3.4,23.6,10.2c5.6,6.8,8.4,16,8.4,27.7l0,0
								c0,3-0.2,5.5-0.5,7.5l0,0h-55.1c0.4,8.8,3.1,15.9,8.1,21.3c4.9,5.4,11.4,8.1,19.3,8.1l0,0c4.1,0,7.8-0.6,11.1-1.7
								c3.4-1.1,6.5-2.6,9.4-4.5l0,0l4.5,8c-3.5,2.4-7.4,4.4-11.7,6C359.8,551.9,354.8,552.6,349.2,552.6z M323.2,504L323.2,504
								h44.4c0-8.5-1.8-14.9-5.4-19.4c-3.6-4.4-8.6-6.6-15.2-6.6l0,0c-5.8,0-11.1,2.3-15.7,6.8C326.8,489.3,324.1,495.7,323.2,504z
								 M411.9,550.7h-12.8v-80.9h10.6l1.2,14.6h0.3c2.8-5,6.2-9.1,10.2-12.1s8.2-4.5,12.8-4.5l0,0c3.5,0,6.3,0.6,8.5,1.7l0,0
								l-2.8,10.9c-1.2-0.4-2.3-0.6-3.3-0.8c-1-0.2-2.4-0.3-4-0.3l0,0c-3.4,0-7,1.4-10.8,4.2c-3.8,2.8-7.1,7.8-9.9,14.8l0,0
								L411.9,550.7L411.9,550.7z M471.3,550.7h-12.9v-94.5c0-8.2,1.9-14.6,5.7-19.3c3.8-4.7,9.7-7.1,17.5-7.1l0,0
								c2.3,0,4.7,0.3,7.1,0.8s4.4,1.2,6.1,1.9l0,0l-2.8,9.3c-3.4-1.1-6.5-1.7-9.2-1.7l0,0c-7.6,0-11.5,5.4-11.5,16.2l0,0
								L471.3,550.7L471.3,550.7z M488.6,480.3h-41.2v-9.8l11.5-0.6h29.7V480.3z M527.7,552.6L527.7,552.6c-8.5,0-14.7-2.7-18.7-8
								c-4-5.3-6-13.1-6-23.5l0,0v-51.4h12.7v49.8c0,7.6,1.3,13.2,3.8,16.7s6.5,5.3,12.1,5.3l0,0c4.2,0,8-1.1,11.4-3.3
								c3.3-2.2,7-5.7,11-10.7l0,0v-57.7h12.7v80.9h-10.5l-1.1-12.8h-0.6c-3.8,4.4-7.8,8-12,10.7
								C538.1,551.3,533.3,552.6,527.7,552.6z M607.3,550.7h-12.8v-80.9h10.7l1.2,11.9h0.3c3.6-3.9,7.5-7.3,11.7-9.9
								c4.2-2.7,8.8-4,13.6-4l0,0c6.2,0,11,1.4,14.5,4.2c3.5,2.8,6,6.6,7.6,11.4l0,0c4.3-4.6,8.6-8.3,13-11.2
								c4.4-2.9,9.1-4.3,13.9-4.3l0,0c8.3,0,14.4,2.7,18.5,8s6.1,13.2,6.1,23.5l0,0v51.4h-12.7v-49.7c0-7.7-1.3-13.3-3.8-16.8
								c-2.5-3.5-6.4-5.3-11.7-5.3l0,0c-6.2,0-13.2,4.3-20.8,12.9l0,0v58.9h-12.9v-49.7c0-7.7-1.3-13.3-3.8-16.8
								c-2.5-3.5-6.4-5.3-11.7-5.3l0,0c-6.2,0-13.2,4.3-20.8,12.9l0,0L607.3,550.7L607.3,550.7z M764.7,552.6L764.7,552.6
								c-7.1,0-13.6-1.7-19.4-5c-5.8-3.4-10.5-8.2-13.9-14.5c-3.5-6.3-5.2-13.9-5.2-22.7l0,0c0-8.8,1.7-16.4,5.2-22.8
								c3.5-6.4,7.9-11.3,13.5-14.7c5.5-3.4,11.4-5.1,17.5-5.1l0,0c10.2,0,18,3.4,23.6,10.2c5.6,6.8,8.4,16,8.4,27.7l0,0
								c0,3-0.2,5.5-0.5,7.5l0,0h-55.1c0.4,8.8,3.1,15.9,8.1,21.3c4.9,5.4,11.4,8.1,19.3,8.1l0,0c4.1,0,7.8-0.6,11.2-1.7
								c3.4-1.1,6.5-2.6,9.4-4.5l0,0l4.5,8c-3.5,2.4-7.4,4.4-11.7,6C775.3,551.9,770.3,552.6,764.7,552.6z M738.7,504L738.7,504
								h44.4c0-8.5-1.8-14.9-5.4-19.4c-3.6-4.4-8.6-6.6-15.2-6.6l0,0c-5.8,0-11.1,2.3-15.7,6.8C742.3,489.3,739.5,495.7,738.7,504z"
								/>
						</g>
					</g>
				</g>
			</g>
			<g transform="matrix(1,0,0,1,131.50735620826083,0)">
				<g>
					<g>
						<path class="st0" d="M493.1-61.4c-0.4-4-0.9-7.9-1.5-11.6c-0.6-3.6-1.4-6.9-2.3-10c-0.2-0.6-0.3-1.2-0.6-1.8
							c-5.3-16.4-15.9-28.1-34.2-37.7c-19.9-10.5-77-28.7-100.4-36v-42.9H408c7.8,0,14.2-6.4,14.2-14.2V-267c0-4.2-1.8-8.1-5-10.8
							c-19.1-16.2-69.8-25-93.9-28.4c-2.8-15-20.7-24.2-48.2-24.2c-27.4,0-45.3,9.1-48.2,24.1c-23.5,3.2-75.6,12.1-95,28.6
							c-3.2,2.7-5,6.6-5,10.8v51.4c0,7.8,6.4,14.2,14.2,14.2H195v42.9c-23.4,7.3-80.5,25.5-100.4,36C72-110.7,61-95.9,57.4-73
							c-0.6,3.8-1.1,7.7-1.5,11.6c-3.1,27-3.4,61.1-0.8,91.2c7,81.6,47.9,171.5,121.4,267.2c2.7,3.5,6.8,5.5,11.2,5.5h173.4
							c4.4,0,8.6-2,11.3-5.5C446,201.3,486.9,111.4,493.9,29.8C496.5-0.4,496.1-34.5,493.1-61.4z M155.2-229.8v-29.7
							c16.8-8.9,56.9-16.7,83.6-19.9h2.9c4.4,0,8.5-2,11.2-5.5c2.7-3.5,3.6-8,2.5-12.2c-0.2-0.7-0.3-1.3-0.4-1.9
							c3.2-1.4,10-3.2,20-3.2s16.8,1.8,20,3.2c-0.1,0.6-0.2,1.3-0.4,1.9c-1.1,4.2-0.1,8.7,2.6,12.2c2.7,3.5,6.8,5.5,11.2,5.5h1.8
							c26.7,3.2,66.8,11,83.6,19.9v29.7h-41.6h-12.3H209.1H155.2z M213.2-134.5c6-1.8,10.1-7.3,10.1-13.6v-53.3h102.4v53.3
							c0,6.3,4.1,11.8,10.1,13.6c23.1,7,87,27.3,105.5,37c2.6,1.4,4.8,2.7,6.8,4.1H100.9c2-1.4,4.3-2.7,6.8-4.1
							C126.2-107.2,190.1-127.5,213.2-134.5z M465.6,27.4c-7.9,92.1-64,184.1-111.4,246.8H194.8C147.3,211.4,91.2,119.4,83.3,27.4
							C80.9-1,81.2-32.9,84.1-58.3c0.2-2.3,0.6-4.5,0.9-6.7h379c0.3,2.2,0.6,4.4,0.9,6.8C467.8-33,468-1,465.6,27.4z"/>
						<path class="st0" d="M403.5,61.6c-7.6-1.8-15.3,2.9-17.1,10.5c-11.1,46.2-33.4,95.8-66.1,147.4c-4.2,6.6-2.2,15.4,4.4,19.6
							c2.4,1.5,5,2.2,7.6,2.2c4.7,0,9.3-2.3,12-6.6c34.4-54.2,57.8-106.7,69.7-156C415.8,71.1,411.1,63.4,403.5,61.6z"/>
					</g>
				</g>
			</g>
			<g>
				<rect x="657.5" y="274.3" class="st0" width="358.5" height="24.4"/>
				<rect x="-204.1" y="274.3" class="st0" width="358.5" height="24.4"/>
				<rect x="657.5" y="225.4" class="st0" width="358.5" height="24.4"/>
				<rect x="-204.1" y="225.4" class="st0" width="358.5" height="24.4"/>
			</g>
		</g>
		<rect x="-344.8" y="-330.4" class="st1" width="1501.6" height="1154.9"/>
	</g>
</g>
</svg>
