<svg xmlns="http://www.w3.org/2000/svg" version="1.1" xmlns:xlink="http://www.w3.org/1999/xlink" xmlns:svgjs="http://svgjs.dev/svgjs" width="1500" height="1500" viewBox="0 0 1500 1500"><rect width="1500" height="1500" fill="#000000"></rect><g transform="matrix(0.6666666666666666,0,0,0.6666666666666666,250.6065886666923,365.6448043184886)"><svg viewBox="0 0 321 247" data-background-color="#575c5f" preserveAspectRatio="xMidYMid meet" height="1154" width="1500" xmlns="http://www.w3.org/2000/svg" xmlns:xlink="http://www.w3.org/1999/xlink"><g id="tight-bounds" transform="matrix(1,0,0,1,-0.19471496200824845,-0.09999999999999432)"><svg viewBox="0 0 321.38925921691094 247.2" height="247.2" width="321.38925921691094"><g><svg viewBox="0 0 395.52 304.2184553342888" height="247.2" width="321.38925921691094"><g transform="matrix(1,0,0,1,0,183.5806219660411)"><svg viewBox="0 0 395.52 120.63783336824774" height="120.63783336824774" width="395.52"><g id="textblocktransform"><svg viewBox="0 0 395.52 120.63783336824774" height="120.63783336824774" width="395.52" id="textblock"><g><svg viewBox="0 0 395.52 71.414020277888" height="71.414020277888" width="395.52"><g transform="matrix(1,0,0,1,0,0)"><svg width="395.52" viewBox="1.05 -38.35 215.14701361098 38.85" height="71.414020277888" data-palette-color="#dedad7"><path d="M1.05-33.9L1.05-35 19.05-35 19.05-33.9 13.75-33.9 13.75-1.1 15.55-1.1Q19.8-1.1 22.33-3.7 24.85-6.3 27.45-11.7L27.45-11.7 28.5-11.7 27.55 0 1.05 0 1.05-1.1 4-1.1 4-33.9 1.05-33.9ZM32.8-24.05L31.75-24.05 30.3-37.35Q32.3-38.35 33.55-38.35L33.55-38.35Q35.25-38.35 35.25-36.5L35.25-36.5Q35.25-35.35 34.8-33.2L34.8-33.2 32.8-24.05ZM38.14-33.9L38.14-35 64.14-35 64.64-25.1 63.75-25.1Q61.64-30.15 59.34-32.02 57.05-33.9 52.59-33.9L52.59-33.9 50.84-33.9 50.84-18.45 52.55-18.45Q54.89-18.45 56.5-20.23 58.09-22 58.75-25L58.75-25 59.5-25 59.5-10.2 58.64-10.2Q57.75-13.95 56.22-15.55 54.7-17.15 52.05-17.15L52.05-17.15 50.84-17.15 50.84-1.1 52.74-1.1Q57.34-1.1 60.57-3.85 63.8-6.6 65-10.9L65-10.9 66-10.9 65.59 0 38.14 0 38.14-1.1 41.09-1.1 41.09-33.9 38.14-33.9ZM69.79 0.5L69.19 0.5 69.19-8.45 69.79-8.45Q71.09-4.1 73.29-2.35 75.49-0.6 78.79-0.6L78.79-0.6Q83.89-0.6 83.89-3.85L83.89-3.85Q83.89-5.25 82.64-5.95L82.64-5.95Q80.69-7.05 77.64-7.65L77.64-7.65Q74.24-8.55 71.94-10.05L71.94-10.05Q69.19-11.85 69.19-15.75 69.19-19.65 71.59-21.98 73.99-24.3 77.99-24.3L77.99-24.3Q80.44-24.3 83.04-23.15L83.04-23.15Q83.99-22.75 84.49-22.75 84.99-22.75 85.34-23.1 85.69-23.45 86.19-24.4L86.19-24.4 86.74-24.4 86.74-16.75 86.14-16.75Q83.59-23.25 78.24-23.25L78.24-23.25Q75.89-23.25 74.74-22.43 73.59-21.6 73.59-20.35L73.59-20.35Q73.59-19.6 73.94-19.18 74.29-18.75 74.49-18.55 74.69-18.35 75.14-18.13 75.59-17.9 75.89-17.78 76.19-17.65 76.82-17.45 77.44-17.25 77.74-17.2L77.74-17.2Q81.14-16.35 82.64-15.73 84.14-15.1 85.49-14.2L85.49-14.2Q88.24-12.3 88.24-8.08 88.24-3.85 85.74-1.68 83.24 0.5 78.89 0.5L78.89 0.5Q75.79 0.5 72.89-0.95L72.89-0.95Q72.29-1.35 71.94-1.35L71.94-1.35Q70.84-1.35 69.79 0.5L69.79 0.5ZM91.49 0.5L90.89 0.5 90.89-8.45 91.49-8.45Q92.79-4.1 94.99-2.35 97.19-0.6 100.49-0.6L100.49-0.6Q105.59-0.6 105.59-3.85L105.59-3.85Q105.59-5.25 104.34-5.95L104.34-5.95Q102.39-7.05 99.34-7.65L99.34-7.65Q95.94-8.55 93.64-10.05L93.64-10.05Q90.89-11.85 90.89-15.75 90.89-19.65 93.29-21.98 95.69-24.3 99.69-24.3L99.69-24.3Q102.14-24.3 104.74-23.15L104.74-23.15Q105.69-22.75 106.19-22.75 106.69-22.75 107.04-23.1 107.39-23.45 107.89-24.4L107.89-24.4 108.44-24.4 108.44-16.75 107.84-16.75Q105.29-23.25 99.94-23.25L99.94-23.25Q97.59-23.25 96.44-22.43 95.29-21.6 95.29-20.35L95.29-20.35Q95.29-19.6 95.64-19.18 95.99-18.75 96.19-18.55 96.39-18.35 96.84-18.13 97.29-17.9 97.59-17.78 97.89-17.65 98.52-17.45 99.14-17.25 99.44-17.2L99.44-17.2Q102.84-16.35 104.34-15.73 105.84-15.1 107.19-14.2L107.19-14.2Q109.94-12.3 109.94-8.08 109.94-3.85 107.44-1.68 104.94 0.5 100.59 0.5L100.59 0.5Q97.49 0.5 94.59-0.95L94.59-0.95Q93.99-1.35 93.64-1.35L93.64-1.35Q92.54-1.35 91.49 0.5L91.49 0.5ZM124.59 0.5Q118.14 0.5 114.91-2.83 111.69-6.15 111.69-12.08 111.69-18 115.31-21.15 118.94-24.3 124.54-24.3L124.54-24.3Q135.89-24.3 135.44-12.9L135.44-12.9 121.34-12.9 121.34-10.95Q121.34-6.05 122.59-3.55 123.84-1.05 126.94-1.05L126.94-1.05Q132.74-1.05 134.54-7.25L134.54-7.25 135.44-7.1Q134.49-3.5 132.01-1.5 129.54 0.5 124.59 0.5L124.59 0.5ZM121.39-16.35L121.39-13.9 126.54-13.9 126.54-16.35Q126.54-20.4 126.06-21.88 125.59-23.35 124.16-23.35 122.74-23.35 122.06-21.78 121.39-20.2 121.39-16.35L121.39-16.35ZM137.34-22.9L137.34-23.8 149.39-23.8 149.39-19.2Q150.19-21.5 151.84-22.9 153.49-24.3 156.84-24.3L156.84-24.3Q164.59-24.3 164.59-15.95L164.59-15.95 164.59-0.9 167.39-0.9 167.39 0 153.24 0 153.24-0.9 155.29-0.9 155.29-17.15Q155.29-20.15 154.89-21.03 154.49-21.9 153.44-21.9L153.44-21.9Q151.84-21.9 150.61-19.8 149.39-17.7 149.39-14.7L149.39-14.7 149.39-0.9 151.54-0.9 151.54 0 137.34 0 137.34-0.9 140.09-0.9 140.09-22.9 137.34-22.9ZM182.03-23.4L182.03-23.4Q179.83-23.4 178.88-21 177.93-18.6 177.93-13.05L177.93-13.05 177.93-10.45Q177.93-5.5 179.03-3.35 180.13-1.2 183.08-1.2 186.03-1.2 187.78-3.2 189.53-5.2 190.03-7.75L190.03-7.75 190.93-7.65Q189.98-3.35 187.43-1.45L187.43-1.45Q184.83 0.5 180.28 0.5L180.28 0.5Q174.48 0.5 171.38-2.63 168.28-5.75 168.28-11.78 168.28-17.8 171.81-21.05 175.33-24.3 181.63-24.3L181.63-24.3Q186.08-24.3 188.43-22.58 190.78-20.85 190.78-18.25 190.78-15.65 189.66-14.45 188.53-13.25 186.56-13.25 184.58-13.25 183.38-14.3 182.18-15.35 182.18-17.4L182.18-17.4Q182.18-18.3 182.43-19.2L182.43-19.2 184.08-19.2Q184.43-20.2 184.43-21L184.43-21Q184.43-23.4 182.03-23.4ZM205.33 0.5Q198.88 0.5 195.66-2.83 192.43-6.15 192.43-12.08 192.43-18 196.06-21.15 199.68-24.3 205.28-24.3L205.28-24.3Q216.63-24.3 216.18-12.9L216.18-12.9 202.08-12.9 202.08-10.95Q202.08-6.05 203.33-3.55 204.58-1.05 207.68-1.05L207.68-1.05Q213.48-1.05 215.28-7.25L215.28-7.25 216.18-7.1Q215.23-3.5 212.76-1.5 210.28 0.5 205.33 0.5L205.33 0.5ZM202.13-16.35L202.13-13.9 207.28-13.9 207.28-16.35Q207.28-20.4 206.81-21.88 206.33-23.35 204.91-23.35 203.48-23.35 202.81-21.78 202.13-20.2 202.13-16.35L202.13-16.35Z" opacity="1" transform="matrix(1,0,0,1,0,0)" fill="#ffffff" class="wordmark-text-0" data-fill-palette-color="primary" id="text-0"></path></svg></g></svg></g><g transform="matrix(1,0,0,1,75.54432,88.27315652901069)"><svg viewBox="0 0 244.43135999999998 32.364676839237056" height="32.364676839237056" width="244.43135999999998"><g transform="matrix(1,0,0,1,0,0)"><svg width="244.43135999999998" viewBox="4.69 -37.35 286.69 37.96" height="32.364676839237056" data-palette-color="#dedad7"><path d="M15.36 0L4.69 0 4.69-33.84 14.58-33.84Q19.75-33.84 22.96-31.9 26.17-29.96 26.17-25.56L26.17-25.56Q26.17-23.05 24.87-21.03 23.56-19.02 21.17-18.24L21.17-18.24 21.17-18.02Q24.22-17.41 26.17-15.39 28.13-13.38 28.13-9.89L28.13-9.89Q28.13-6.59 26.51-4.39 24.9-2.2 22.02-1.1 19.14 0 15.36 0L15.36 0ZM8.69-30.59L8.69-19.36 13.79-19.36Q18.24-19.36 20.21-20.89 22.19-22.41 22.19-25.02L22.19-25.02Q22.19-28.08 20.13-29.33 18.07-30.59 14.01-30.59L14.01-30.59 8.69-30.59ZM8.69-16.28L8.69-3.17 14.72-3.17Q19.17-3.17 21.67-4.85 24.17-6.52 24.17-9.99L24.17-9.99Q24.17-13.18 21.7-14.73 19.24-16.28 14.72-16.28L14.72-16.28 8.69-16.28ZM44.55 0.61L44.55 0.61Q41.26 0.61 38.56-0.95 35.86-2.51 34.26-5.44 32.66-8.37 32.66-12.45L32.66-12.45Q32.66-16.53 34.26-19.48 35.86-22.44 38.43-24.02 40.99-25.61 43.85-25.61L43.85-25.61Q48.56-25.61 51.14-22.46 53.73-19.31 53.73-13.89L53.73-13.89Q53.73-12.52 53.59-11.57L53.59-11.57 36.57-11.57Q36.77-7.5 39.06-5 41.35-2.51 45.02-2.51L45.02-2.51Q46.9-2.51 48.46-3.02 50.02-3.52 51.36-4.42L51.36-4.42 52.76-1.95Q51.12-0.83 49.14-0.11 47.17 0.61 44.55 0.61ZM36.52-14.43L36.52-14.43 50.24-14.43Q50.24-18.36 48.58-20.41 46.92-22.46 43.89-22.46L43.89-22.46Q41.18-22.46 39.05-20.36 36.91-18.26 36.52-14.43ZM66.45 0.61L66.45 0.61Q63.67 0.61 61.27-0.33 58.88-1.27 57.17-2.93L57.17-2.93 59.03-5.25Q60.62-3.93 62.41-3.2 64.2-2.47 66.6-2.47L66.6-2.47Q69.11-2.47 70.38-3.67 71.65-4.88 71.65-6.54L71.65-6.54Q71.65-7.86 70.82-8.73 69.99-9.59 68.68-10.21 67.38-10.82 65.94-11.33L65.94-11.33Q64.08-12.01 62.4-12.92 60.71-13.82 59.64-15.19 58.56-16.55 58.56-18.6L58.56-18.6Q58.56-21.53 60.79-23.57 63.01-25.61 67.06-25.61L67.06-25.61Q69.38-25.61 71.35-24.82 73.31-24.02 74.75-22.83L74.75-22.83 72.94-20.51Q71.63-21.46 70.22-21.98 68.82-22.51 67.11-22.51L67.11-22.51Q64.64-22.51 63.51-21.37 62.37-20.24 62.37-18.8L62.37-18.8Q62.37-17.02 63.89-16.11 65.4-15.21 67.67-14.36L67.67-14.36Q69.65-13.67 71.43-12.78 73.21-11.89 74.34-10.47 75.46-9.06 75.46-6.74L75.46-6.74Q75.46-3.71 73.14-1.55 70.82 0.61 66.45 0.61ZM89.15 0.61L89.15 0.61Q85.22 0.61 83.68-1.66 82.15-3.93 82.15-7.62L82.15-7.62 82.15-21.73 78.43-21.73 78.43-24.78 82.37-24.98 82.83-33.08 86.13-33.08 86.13-24.98 92.99-24.98 92.99-21.73 86.13-21.73 86.13-7.52Q86.13-5.2 86.98-3.91 87.83-2.61 90.03-2.61L90.03-2.61Q90.69-2.61 91.42-2.75 92.16-2.88 92.91-3.22L92.91-3.22 93.79-0.44Q92.79 0 91.59 0.31 90.4 0.61 89.15 0.61ZM119.18 0L115.17 0 115.17-33.84 124.65-33.84Q128.43-33.84 131.27-32.9 134.12-31.96 135.69-29.8 137.27-27.64 137.27-23.95L137.27-23.95Q137.27-18.65 133.84-16.13 130.41-13.6 124.84-13.6L124.84-13.6 119.18-13.6 119.18 0ZM119.18-30.54L119.18-16.85 124.28-16.85Q128.84-16.85 131.05-18.54 133.26-20.24 133.26-23.95L133.26-23.95Q133.26-27.71 130.97-29.13 128.67-30.54 124.08-30.54L124.08-30.54 119.18-30.54ZM153.84 0.61L153.84 0.61Q150.55 0.61 147.85-0.95 145.15-2.51 143.55-5.44 141.95-8.37 141.95-12.45L141.95-12.45Q141.95-16.53 143.55-19.48 145.15-22.44 147.71-24.02 150.28-25.61 153.13-25.61L153.13-25.61Q157.85-25.61 160.43-22.46 163.02-19.31 163.02-13.89L163.02-13.89Q163.02-12.52 162.88-11.57L162.88-11.57 145.86-11.57Q146.05-7.5 148.35-5 150.64-2.51 154.31-2.51L154.31-2.51Q156.19-2.51 157.75-3.02 159.31-3.52 160.65-4.42L160.65-4.42 162.05-1.95Q160.41-0.83 158.43-0.11 156.45 0.61 153.84 0.61ZM145.81-14.43L145.81-14.43 159.53-14.43Q159.53-18.36 157.87-20.41 156.21-22.46 153.18-22.46L153.18-22.46Q150.47-22.46 148.34-20.36 146.2-18.26 145.81-14.43ZM173.2 0L169.25 0 169.25-24.98 172.54-24.98 172.91-20.46 173-20.46Q174.32-22.8 176.15-24.21 177.99-25.61 180.11-25.61L180.11-25.61Q181.72-25.61 182.75-25.1L182.75-25.1 181.87-21.73Q181.33-21.9 180.85-21.97 180.38-22.05 179.6-22.05L179.6-22.05Q178.01-22.05 176.25-20.74 174.49-19.43 173.2-16.16L173.2-16.16 173.2 0ZM191.56 0L187.58 0 187.58-29.2Q187.58-32.98 189.35-35.17 191.12-37.35 194.76-37.35L194.76-37.35Q195.83-37.35 196.94-37.11 198.05-36.87 198.81-36.52L198.81-36.52 197.93-33.64Q196.34-34.16 195.1-34.16L195.1-34.16Q191.56-34.16 191.56-29.15L191.56-29.15 191.56 0ZM196.9-21.73L184.18-21.73 184.18-24.78 187.72-24.98 196.9-24.98 196.9-21.73ZM208.99 0.61L208.99 0.61Q205.06 0.61 203.21-1.86 201.37-4.32 201.37-9.11L201.37-9.11 201.37-24.98 205.28-24.98 205.28-9.62Q205.28-6.08 206.44-4.46 207.59-2.83 210.18-2.83L210.18-2.83Q212.14-2.83 213.69-3.85 215.24-4.86 217.09-7.15L217.09-7.15 217.09-24.98 221-24.98 221 0 217.75 0 217.41-3.96 217.24-3.96Q215.5-1.9 213.53-0.65 211.55 0.61 208.99 0.61ZM233.57 0L229.61 0 229.61-24.98 232.91-24.98 233.28-21.31 233.37-21.31Q235.03-23.14 237-24.38 238.96-25.61 241.21-25.61L241.21-25.61Q244.07-25.61 245.69-24.32 247.31-23.02 248.05-20.8L248.05-20.8Q250.02-22.92 252.07-24.27 254.13-25.61 256.35-25.61L256.35-25.61Q260.18-25.61 262.06-23.13 263.94-20.65 263.94-15.87L263.94-15.87 263.94 0 260.01 0 260.01-15.36Q260.01-18.92 258.84-20.56 257.67-22.19 255.22-22.19L255.22-22.19Q252.34-22.19 248.78-18.19L248.78-18.19 248.78 0 244.8 0 244.8-15.36Q244.8-18.92 243.64-20.56 242.48-22.19 240.01-22.19L240.01-22.19Q237.13-22.19 233.57-18.19L233.57-18.19 233.57 0ZM282.2 0.61L282.2 0.61Q278.9 0.61 276.21-0.95 273.51-2.51 271.91-5.44 270.31-8.37 270.31-12.45L270.31-12.45Q270.31-16.53 271.91-19.48 273.51-22.44 276.07-24.02 278.63-25.61 281.49-25.61L281.49-25.61Q286.2-25.61 288.79-22.46 291.38-19.31 291.38-13.89L291.38-13.89Q291.38-12.52 291.23-11.57L291.23-11.57 274.22-11.57Q274.41-7.5 276.71-5 279-2.51 282.66-2.51L282.66-2.51Q284.54-2.51 286.11-3.02 287.67-3.52 289.01-4.42L289.01-4.42 290.4-1.95Q288.77-0.83 286.79-0.11 284.81 0.61 282.2 0.61ZM274.17-14.43L274.17-14.43 287.89-14.43Q287.89-18.36 286.23-20.41 284.57-22.46 281.54-22.46L281.54-22.46Q278.83-22.46 276.69-20.36 274.56-18.26 274.17-14.43Z" opacity="1" transform="matrix(1,0,0,1,0,0)" fill="#ffffff" class="slogan-text-1" data-fill-palette-color="secondary" id="text-1"></path></svg></g></svg></g></svg></g></svg></g><g transform="matrix(1,0,0,1,131.50735620826083,0)"><svg viewBox="0 0 132.50528758347832 166.7214857149184" height="166.7214857149184" width="132.50528758347832"><g><svg xmlns="http://www.w3.org/2000/svg" xmlns:xlink="http://www.w3.org/1999/xlink" version="1.1" x="7.999999999999993" y="0" viewBox="18.133444493860857 1 68.30788372866547 97.75" enable-background="new 0 0 100 100" xml:space="preserve" height="166.7214857149184" width="116.50528758347834" class="icon-icon-0" data-fill-palette-color="accent" id="icon-0"><g fill="#b4bfc5" data-fill-palette-color="accent"><path fill="#ffffff" d="M86.047 42.556c-0.065-0.617-0.145-1.219-0.236-1.799-0.085-0.549-0.209-1.059-0.354-1.551-0.025-0.091-0.05-0.184-0.087-0.271-0.813-2.533-2.458-4.343-5.284-5.83-3.073-1.617-11.896-4.431-15.51-5.554v-6.622H72.9c1.21 0 2.19-0.981 2.19-2.191v-7.941c0-0.643-0.281-1.253-0.771-1.67C71.367 6.618 63.537 5.261 59.823 4.74 59.392 2.416 56.62 1 52.374 1c-4.232 0-6.999 1.406-7.445 3.716-3.637 0.501-11.673 1.862-14.673 4.41-0.49 0.417-0.772 1.027-0.772 1.67v7.941c0 1.21 0.981 2.191 2.191 2.191h8.324v6.622c-3.615 1.123-12.438 3.938-15.511 5.555-3.463 1.823-5.174 4.112-5.723 7.645-0.093 0.587-0.17 1.189-0.235 1.791-0.479 4.169-0.527 9.436-0.128 14.089 1.081 12.606 7.392 26.49 18.756 41.265 0.415 0.539 1.056 0.855 1.737 0.855h26.786c0.681 0 1.324-0.316 1.738-0.855 11.364-14.776 17.676-28.66 18.756-41.265C86.571 51.977 86.523 46.71 86.047 42.556zM33.866 16.546v-4.582c2.596-1.368 8.793-2.58 12.918-3.069h0.442c0.676 0 1.314-0.313 1.73-0.847 0.414-0.534 0.56-1.229 0.393-1.884-0.025-0.101-0.046-0.198-0.062-0.294 0.488-0.214 1.541-0.488 3.086-0.488 1.545 0 2.598 0.274 3.085 0.488-0.016 0.097-0.036 0.195-0.062 0.297-0.165 0.655-0.02 1.35 0.396 1.883 0.415 0.533 1.054 0.845 1.729 0.845h0.271c4.125 0.49 10.321 1.702 12.918 3.069v4.582h-6.417-1.906H42.19 33.866zM42.824 31.264c0.925-0.279 1.556-1.131 1.556-2.097v-8.239h15.814v8.239c0 0.966 0.631 1.817 1.556 2.097 3.561 1.08 13.431 4.211 16.294 5.717 0.399 0.21 0.739 0.419 1.057 0.632H25.475c0.315-0.213 0.657-0.422 1.054-0.632C29.394 35.475 39.263 32.344 42.824 31.264zM81.809 56.256c-1.22 14.218-9.885 28.425-17.212 38.112H39.978c-7.328-9.687-15.992-23.893-17.211-38.111-0.375-4.379-0.332-9.32 0.118-13.232 0.037-0.351 0.088-0.688 0.135-1.03h58.534c0.049 0.343 0.099 0.682 0.138 1.044C82.14 46.937 82.183 51.878 81.809 56.256z" data-fill-palette-color="accent"></path><path fill="#ffffff" d="M72.212 61.545c-1.177-0.281-2.359 0.441-2.641 1.618-1.717 7.141-5.15 14.803-10.205 22.774-0.648 1.022-0.346 2.376 0.676 3.023 0.363 0.232 0.771 0.341 1.172 0.341 0.725 0 1.435-0.359 1.853-1.018 5.313-8.379 8.936-16.486 10.764-24.097C74.114 63.012 73.39 61.827 72.212 61.545z" data-fill-palette-color="accent"></path></g></svg></g></svg></g><g><rect width="94.44198581671631" height="6.440190047928867" y="159.28129566698954" x="264.01264379173915" fill="#ffffff" data-fill-palette-color="accent"></rect><rect width="94.44198581671631" height="6.440190047928867" y="159.28129566698954" x="37.06537039154452" fill="#ffffff" data-fill-palette-color="accent"></rect><rect width="94.44198581671631" height="6.440190047928867" y="146.4009155711318" x="264.01264379173915" fill="#ffffff" data-fill-palette-color="accent"></rect><rect width="94.44198581671631" height="6.440190047928867" y="146.4009155711318" x="37.06537039154452" fill="#ffffff" data-fill-palette-color="accent"></rect></g></svg></g><defs></defs></svg><rect width="321.38925921691094" height="247.2" fill="none" stroke="none" visibility="hidden"></rect></g></svg></g></svg>